<svg height="512pt" viewBox="0 -44 512 512" width="512pt" xmlns="http://www.w3.org/2000/svg"><path d="m406.152344 280.617188c-23.074219 0-41.84375 18.769531-41.84375 41.84375v14.769531c0 23.074219 18.769531 41.847656 41.84375 41.847656 23.074218 0 41.847656-18.773437 41.847656-41.847656v-14.769531c0-23.074219-18.773438-41.84375-41.847656-41.84375zm0 0" fill="#6aa9ff"/><path d="m406.152344 162.460938c-23.074219 0-41.84375 18.773437-41.84375 41.847656v14.769531c0 23.074219 18.769531 41.84375 41.84375 41.84375 23.074218 0 41.847656-18.769531 41.847656-41.84375v-14.769531c0-23.074219-18.773438-41.847656-41.847656-41.847656zm0 0" fill="#046eff"/><path d="m406.152344 44.308594c-23.074219 0-41.84375 18.769531-41.84375 41.84375v14.769531c0 23.074219 18.769531 41.847656 41.84375 41.847656 23.074218 0 41.847656-18.773437 41.847656-41.847656v-14.769531c0-23.074219-18.773438-41.84375-41.847656-41.84375zm0 0" fill="#d81b60"/><g fill="#edeff9"><path d="m324.921875 108.308594h-246.152344c-8.15625 0-14.769531-6.613282-14.769531-14.769532s6.613281-14.769531 14.769531-14.769531h246.152344c8.15625 0 14.769531 6.613281 14.769531 14.769531s-6.613281 14.769532-14.769531 14.769532zm0 0"/><path d="m270.769531 226.460938h-192c-8.15625 0-14.769531-6.613282-14.769531-14.769532s6.613281-14.769531 14.769531-14.769531h192c8.15625 0 14.769531 6.613281 14.769531 14.769531s-6.613281 14.769532-14.769531 14.769532zm0 0"/><path d="m216.617188 344.617188h-137.847657c-8.15625 0-14.769531-6.613282-14.769531-14.769532s6.613281-14.769531 14.769531-14.769531h137.847657c8.15625 0 14.765624 6.613281 14.765624 14.769531s-6.609374 14.769532-14.765624 14.769532zm0 0"/></g><path d="m352 280.617188c-23.074219 0-41.847656 18.769531-41.847656 41.84375v14.769531c0 23.074219 18.773437 41.847656 41.847656 41.847656s41.847656-18.773437 41.847656-41.847656v-14.769531c0-23.074219-18.773437-41.84375-41.847656-41.84375zm0 0" fill="#046eff"/><path d="m297.847656 280.617188c-23.074218 0-41.847656 18.769531-41.847656 41.84375v14.769531c0 23.074219 18.773438 41.847656 41.847656 41.847656 23.074219 0 41.84375-18.773437 41.84375-41.847656v-14.769531c0-23.074219-18.769531-41.84375-41.84375-41.84375zm0 0" fill="#d81b60"/><path d="m352 162.460938c-23.074219 0-41.847656 18.773437-41.847656 41.847656v14.769531c0 23.074219 18.773437 41.84375 41.847656 41.84375s41.847656-18.769531 41.847656-41.84375v-14.769531c0-23.074219-18.773437-41.847656-41.847656-41.847656zm0 0" fill="#d81b60"/><path d="m352 44.308594c-23.074219 0-41.847656 18.769531-41.847656 41.84375v14.769531c0 23.074219 18.773437 41.847656 41.847656 41.847656s41.847656-18.773437 41.847656-41.847656v-14.769531c0-23.074219-18.773437-41.84375-41.847656-41.84375zm0 0" fill="#ffcd00"/><path d="m243.691406 280.617188c-23.074218 0-41.84375 18.769531-41.84375 41.84375v14.769531c0 23.074219 18.769532 41.847656 41.84375 41.847656 23.074219 0 41.847656-18.773437 41.847656-41.847656v-14.769531c0-23.074219-18.773437-41.84375-41.847656-41.84375zm0 0" fill="#ffcd00"/><path d="m297.847656 162.460938c-23.074218 0-41.847656 18.773437-41.847656 41.847656v14.769531c0 23.074219 18.773438 41.84375 41.847656 41.84375 23.074219 0 41.84375-18.769531 41.84375-41.84375v-14.769531c0-23.074219-18.769531-41.847656-41.84375-41.847656zm0 0" fill="#ffcd00"/><path d="m49.230469 0h-4.921875c-24.433594 0-44.308594 19.875-44.308594 44.308594v334.769531c0 24.429687 19.875 44.304687 44.308594 44.304687h4.921875c24.429687 0 44.308593-19.875 44.308593-44.304687v-334.769531c0-24.433594-19.878906-44.308594-44.308593-44.308594zm0 0" fill="#d1d6f2"/><path d="m467.691406 0h-4.921875c-24.429687 0-44.308593 19.875-44.308593 44.308594v334.769531c0 24.429687 19.878906 44.304687 44.308593 44.304687h4.921875c24.433594 0 44.308594-19.875 44.308594-44.304687v-334.769531c0-24.433594-19.875-44.308594-44.308594-44.308594zm0 0" fill="#bbc4ea"/></svg>